<svg width="235" height="159" viewBox="0 0 235 159" fill="none" xmlns="http://www.w3.org/2000/svg">

<g id="1440w">

<g id="08 &#194;&#183; About &#226;&#128;&#148; Amir &#38; Keren">
<g id="bubble-amir-hebrew-1" clip-path="url(#clip0_1626_43139)">
<path id="Vector" d="M194.959 157.503C182.347 152.832 173.217 141.999 168.681 129.361C147.097 129.903 125.586 130.184 103.933 130.075L76.5452 129.56C67.111 129.384 57.9446 128.741 48.5951 127.806L39.5267 126.518C35.5464 125.953 31.8406 124.672 28.2227 122.948C19.1442 118.626 14.9234 110.54 12.6335 101.048C9.9438 89.8964 9.49326 76.5123 9.61182 64.9271C9.68296 57.7999 9.92009 50.9165 10.4045 43.84C10.7026 39.4905 11.1735 35.3578 11.9323 31.0793C13.6158 21.5842 17.8705 14.4637 26.5526 9.98543C30.8378 7.7734 35.2991 6.29645 40.0484 5.24971C47.1587 3.67792 54.1608 2.66845 61.4642 2.04177C73.1001 1.03906 84.6616 0.541102 96.3893 0.283652C115.654 -0.136396 134.82 -0.119459 154.082 0.534326L191.006 1.78769L202.932 2.59731C206.148 2.81411 209.175 3.46111 212.238 4.40962C223.624 7.93938 228.966 16.8621 231.459 28.0577C232.679 33.5284 233.349 38.8807 233.681 44.5311C234.307 55.2558 234.254 65.8282 233.535 76.5496C233.017 84.2596 231.956 91.7493 230.039 99.1985C229.026 103.138 227.695 106.763 225.938 110.357C222.943 116.475 218.196 121.119 211.855 123.687C207.124 125.604 202.289 126.773 197.082 127.423C197.316 137.406 199.135 145.963 204.283 154.547C204.843 155.479 204.944 156.518 204.41 157.517C203.109 159.946 197.959 158.622 194.966 157.517L194.959 157.503ZM201.598 155.946C196.05 146.565 194.203 137.355 194.05 126.593C194.033 125.465 194.715 124.645 195.829 124.513C200.795 123.92 205.582 122.904 210.216 121.055C215.016 119.137 218.969 116.051 221.665 111.661L223.901 107.538C225.964 102.884 227.312 98.1212 228.288 93.0975C229.474 86.9933 230.199 81.0618 230.595 74.8254C231.238 64.7341 231.256 54.8155 230.632 44.7139C230.29 39.1517 229.622 33.874 228.43 28.4947C226.316 18.9318 221.734 10.7442 212.083 7.54304C209.41 6.65891 206.784 5.96447 203.956 5.75446L191.537 4.83305L140.206 3.22738C119.373 2.81411 98.6386 2.97671 77.8766 3.95569C65.3801 4.54511 50.7088 5.64943 38.7511 8.69818C34.8791 9.68394 31.2883 10.9407 27.7857 12.8004C16.8882 18.5794 14.8827 28.3219 13.8123 39.9342C13.1856 46.7228 12.9011 53.3148 12.7385 60.1644C12.542 68.5213 12.6335 76.6174 13.2839 84.9438C13.9343 93.2702 15.4011 102.752 19.107 110.038C23.4328 118.544 31.3832 121.932 40.4651 123.595C45.499 124.516 50.36 125.011 55.5496 125.401C69.3401 126.437 83.1034 126.844 96.9819 126.989C121.03 127.24 144.938 126.942 168.911 126.359C169.881 126.193 170.819 126.529 171.131 127.389C172.913 132.298 175.155 136.881 178.282 141.071C183.733 148.374 192.228 154.862 201.601 155.946H201.598Z" fill="black"/>
<path id="Vector_2" d="M201.598 155.945C192.225 154.86 183.73 148.373 178.279 141.07C175.152 136.88 172.91 132.296 171.128 127.388C170.817 126.531 169.878 126.192 168.91 126.358C144.939 126.941 121.027 127.239 96.9796 126.988C83.1043 126.842 69.341 126.439 55.5472 125.399C50.3609 125.01 45.4964 124.515 40.4626 123.594C31.3808 121.931 23.4304 118.54 19.1045 110.037C15.3986 102.751 13.9251 93.2114 13.2814 84.9426C12.6378 76.6738 12.5362 68.5201 12.736 60.1631C12.8986 53.3102 13.1832 46.7216 13.8099 39.933C14.8837 28.3208 16.8891 18.5783 27.7799 12.8026C31.2825 10.9429 34.8733 9.6895 38.7453 8.70035C50.703 5.65161 65.3709 4.54729 77.8708 3.95786C98.6326 2.97887 119.367 2.81288 140.201 3.22955L191.531 4.83523L203.95 5.75662C206.778 5.96665 209.403 6.66108 212.076 7.54522C221.727 10.743 226.31 18.934 228.424 28.4969C229.614 33.8762 230.281 39.1539 230.627 44.7161C231.249 54.8177 231.233 64.7363 230.588 74.8276C230.192 81.0639 229.467 86.9955 228.281 93.0997C227.307 98.1267 225.958 102.886 223.895 107.541L221.66 111.663C218.959 116.057 215.01 119.143 210.21 121.057C205.576 122.906 200.79 123.923 195.824 124.515C194.709 124.647 194.028 125.467 194.044 126.595C194.201 137.357 196.043 146.568 201.591 155.947L201.598 155.945ZM37.6782 15.8683L42.3258 13.5004C42.5256 13.3988 42.7323 12.8974 42.6205 12.7382C41.9802 11.8101 38.4607 13.7376 36.8211 14.8791C36.6314 15.0112 36.5365 15.6752 36.6822 15.8479C36.8279 16.0207 37.3733 16.0242 37.6782 15.8683ZM25.4696 25.4752C27.4039 22.8025 29.4601 20.5566 32.1261 18.7342C32.336 18.5919 32.6003 18.0871 32.502 17.8805C32.4038 17.6738 31.9398 17.5959 31.6179 17.6298C28.6268 19.3777 26.2487 21.7863 24.3992 24.7164C24.4365 25.0755 24.4805 25.4041 24.5448 25.6039C24.6092 25.8038 25.3477 25.6513 25.473 25.4752H25.4696ZM224.065 84.6106C224.065 84.3836 223.642 83.8925 223.414 83.9162C223.188 83.9399 222.804 84.343 222.774 84.5767L221.934 90.9114C221.9 91.1654 222.191 91.687 222.419 91.7446C223.55 92.0292 224.095 87.053 224.065 84.614V84.6106ZM221.805 97.2357C221.856 96.9818 221.497 96.4059 221.266 96.4398C221.073 96.4702 220.684 96.7446 220.612 96.9445L218.208 103.625C218.123 103.855 218.319 104.387 218.51 104.488C219.641 105.105 221.324 99.6579 221.809 97.2357H221.805Z" fill="white"/>
<path id="Vector_3" d="M25.4705 25.4771C25.3451 25.6532 24.6033 25.8056 24.5423 25.6058C24.4813 25.4059 24.4339 25.0774 24.3966 24.7183C26.2496 21.7881 28.6242 19.3796 31.6153 17.6317C31.9372 17.5978 32.4013 17.6757 32.4996 17.8824C32.5977 18.0889 32.3336 18.5937 32.1235 18.736C29.4576 20.5585 27.4047 22.8044 25.4671 25.4771H25.4705Z" fill="black"/>
<path id="Vector_4" d="M221.806 97.237C221.321 99.6591 219.641 105.106 218.507 104.49C218.317 104.388 218.123 103.856 218.206 103.626L220.61 96.9457C220.681 96.7492 221.07 96.4714 221.264 96.4409C221.494 96.407 221.853 96.983 221.802 97.237H221.806Z" fill="black"/>
<path id="Vector_5" d="M224.065 84.6117C224.095 87.0507 223.553 92.027 222.418 91.7425C222.191 91.6849 221.9 91.1632 221.934 90.9091L222.774 84.5745C222.804 84.3408 223.187 83.9376 223.414 83.9139C223.642 83.8902 224.061 84.3815 224.065 84.6084V84.6117Z" fill="black"/>
<path id="Vector_6" d="M37.6781 15.8691C37.3732 16.025 36.8311 16.0216 36.6821 15.8489C36.5331 15.6762 36.6313 15.0122 36.821 14.8801C38.4606 13.7384 41.9801 11.811 42.6204 12.7391C42.7322 12.8984 42.5255 13.3997 42.3257 13.5013L37.6781 15.8691Z" fill="black"/>
<g id="&#215;&#144;&#215;&#158;&#215;&#153;&#215;&#168; &#215;&#169;&#215;&#156;&#215;&#149; &#226;&#128;&#168;&#215;&#158;&#215;&#149;&#215;&#158;&#215;&#151;&#215;&#148; UX &#215;&#149;-UI">
<path d="M120.387 56V44.984H122.979V56H120.387ZM128.392 56L131.524 47.324H125.314V41.78H127.906V44.984H134.242V47.324L131.146 56H128.392ZM142.86 56.288C142.02 56.288 141.204 56.156 140.412 55.892C139.62 55.628 138.912 55.232 138.288 54.704C137.676 54.164 137.184 53.486 136.812 52.67C136.452 51.854 136.272 50.894 136.272 49.79V44.984H138.828V49.79C138.828 50.582 138.948 51.248 139.188 51.788C139.428 52.328 139.74 52.76 140.124 53.084C140.52 53.408 140.958 53.642 141.438 53.786C141.918 53.93 142.392 54.002 142.86 54.002C143.352 54.002 143.832 53.93 144.3 53.786C144.78 53.642 145.212 53.408 145.596 53.084C145.98 52.76 146.286 52.328 146.514 51.788C146.754 51.248 146.874 50.582 146.874 49.79V44.984H149.43V49.79C149.43 50.894 149.25 51.854 148.89 52.67C148.53 53.486 148.038 54.164 147.414 54.704C146.802 55.232 146.1 55.628 145.308 55.892C144.528 56.156 143.712 56.288 142.86 56.288ZM140.124 51.338C139.656 51.338 139.218 51.266 138.81 51.122C138.402 50.966 138.012 50.702 137.64 50.33V48.566C138.024 48.902 138.402 49.148 138.774 49.304C139.158 49.448 139.548 49.52 139.944 49.52C140.556 49.52 140.988 49.364 141.24 49.052C141.492 48.728 141.618 48.182 141.618 47.414V44.984H144.174V47.414C144.174 48.194 144.03 48.884 143.742 49.484C143.466 50.072 143.028 50.528 142.428 50.852C141.84 51.176 141.072 51.338 140.124 51.338ZM161.699 56V50.042C161.699 49.418 161.627 48.908 161.483 48.512C161.339 48.116 161.081 47.822 160.709 47.63C160.337 47.426 159.815 47.324 159.143 47.324H155.579V44.984H159.143C160.859 44.984 162.143 45.374 162.995 46.154C163.859 46.922 164.291 48.218 164.291 50.042V56H161.699ZM166.223 51.14V44.984H168.815V51.14H166.223ZM177.952 56.198C177.652 56.198 177.358 56.168 177.07 56.108C176.782 56.048 176.512 55.976 176.26 55.892V53.678C176.5 53.762 176.752 53.834 177.016 53.894C177.28 53.942 177.562 53.966 177.862 53.966C178.486 53.966 179.02 53.84 179.464 53.588C179.92 53.336 180.268 52.946 180.508 52.418C180.76 51.89 180.886 51.212 180.886 50.384C180.886 49.52 180.742 48.848 180.454 48.368C180.178 47.876 179.818 47.528 179.374 47.324C178.93 47.12 178.474 47.018 178.006 47.018C177.418 47.018 176.902 47.144 176.458 47.396C176.014 47.648 175.63 48.056 175.306 48.62C174.994 49.184 174.73 49.934 174.514 50.87L173.326 56H170.644L172.048 49.628L170.554 44.984H173.146L173.902 47.342H174.046C174.298 46.802 174.598 46.334 174.946 45.938C175.306 45.542 175.75 45.236 176.278 45.02C176.818 44.804 177.484 44.696 178.276 44.696C178.936 44.696 179.572 44.81 180.184 45.038C180.808 45.266 181.366 45.614 181.858 46.082C182.35 46.55 182.74 47.144 183.028 47.864C183.328 48.572 183.478 49.412 183.478 50.384C183.478 51.44 183.256 52.412 182.812 53.3C182.38 54.176 181.75 54.878 180.922 55.406C180.106 55.934 179.116 56.198 177.952 56.198ZM193.159 56L188.965 50.168L188.731 50.06L184.969 45.128V44.984H187.831L191.845 50.438L192.043 50.564L196.021 55.856V56H193.159ZM185.185 56V53.21C185.185 52.526 185.299 51.92 185.527 51.392C185.767 50.864 186.109 50.408 186.553 50.024C187.009 49.628 187.567 49.316 188.227 49.088L189.973 48.476V50.654L189.721 50.726C189.229 50.858 188.839 51.032 188.551 51.248C188.275 51.452 188.077 51.704 187.957 52.004C187.837 52.304 187.777 52.664 187.777 53.084V56H185.185ZM191.107 52.202V50.06L191.287 50.006C191.959 49.802 192.421 49.52 192.673 49.16C192.937 48.8 193.069 48.254 193.069 47.522V44.984H195.661V47.594C195.661 48.338 195.535 48.98 195.283 49.52C195.031 50.048 194.677 50.492 194.221 50.852C193.765 51.2 193.225 51.482 192.601 51.698L191.107 52.202ZM85.3378 79.288C84.4018 79.288 83.5798 79.078 82.8718 78.658C82.1638 78.226 81.6058 77.632 81.1978 76.876C80.8018 76.108 80.6038 75.226 80.6038 74.23V66.112H82.1338V74.302C82.1338 74.974 82.2538 75.58 82.4938 76.12C82.7338 76.648 83.0878 77.068 83.5558 77.38C84.0358 77.68 84.6298 77.83 85.3378 77.83C86.0458 77.83 86.6398 77.68 87.1198 77.38C87.5998 77.068 87.9598 76.648 88.1998 76.12C88.4398 75.58 88.5598 74.974 88.5598 74.302V66.112H90.0898V74.23C90.0898 75.226 89.8978 76.108 89.5137 76.876C89.1418 77.632 88.6018 78.226 87.8938 78.658C87.1858 79.078 86.3338 79.288 85.3378 79.288ZM92.7716 79V66.112H94.3016V79H92.7716ZM96.8246 74.05V72.79H102.531V74.05H96.8246ZM105.005 79V67.984H106.697V79H105.005ZM118.244 79.288C117.308 79.288 116.486 79.078 115.778 78.658C115.07 78.226 114.512 77.632 114.104 76.876C113.708 76.108 113.51 75.226 113.51 74.23V66.112H115.04V74.302C115.04 74.974 115.16 75.58 115.4 76.12C115.64 76.648 115.994 77.068 116.462 77.38C116.942 77.68 117.536 77.83 118.244 77.83C118.952 77.83 119.546 77.68 120.026 77.38C120.506 77.068 120.866 76.648 121.106 76.12C121.346 75.58 121.466 74.974 121.466 74.302V66.112H122.996V74.23C122.996 75.226 122.804 76.108 122.42 76.876C122.048 77.632 121.508 78.226 120.8 78.658C120.092 79.078 119.24 79.288 118.244 79.288ZM124.724 66.112H126.56L129.8 71.134H130.034L135.182 79H133.382L129.872 73.618H129.674L124.724 66.112ZM124.472 79L129.62 71.134H129.872L133.112 66.112H134.93L129.98 73.618H129.8L126.272 79H124.472ZM148.89 79V72.898C148.89 72.058 148.776 71.392 148.548 70.9C148.332 70.396 147.972 70.036 147.468 69.82C146.976 69.604 146.31 69.496 145.47 69.496H141.042V67.984H145.47C146.658 67.984 147.624 68.158 148.368 68.506C149.124 68.842 149.682 69.376 150.042 70.108C150.402 70.828 150.582 71.758 150.582 72.898V79H148.89ZM141.042 79V72.88H142.734V79H141.042ZM161.468 79V72.718C161.468 71.914 161.36 71.278 161.144 70.81C160.94 70.342 160.604 70.006 160.136 69.802C159.668 69.598 159.032 69.496 158.228 69.496H154.106V67.984H158.228C159.344 67.984 160.268 68.152 161 68.488C161.732 68.812 162.272 69.322 162.62 70.018C162.98 70.714 163.16 71.614 163.16 72.718V79H161.468ZM153.134 79V67.984H154.826V79H153.134ZM172.002 79.216C171.63 79.216 171.3 79.192 171.012 79.144C170.736 79.108 170.484 79.06 170.256 79V77.506C170.592 77.59 170.874 77.65 171.102 77.686C171.33 77.722 171.63 77.74 172.002 77.74C172.674 77.74 173.292 77.59 173.856 77.29C174.42 76.978 174.876 76.504 175.224 75.868C175.572 75.22 175.746 74.392 175.746 73.384C175.746 72.436 175.602 71.656 175.314 71.044C175.038 70.432 174.636 69.976 174.108 69.676C173.592 69.364 172.98 69.208 172.272 69.208C171.576 69.208 170.976 69.352 170.472 69.64C169.968 69.916 169.548 70.348 169.212 70.936C168.876 71.524 168.6 72.274 168.384 73.186L167.034 79H165.27L166.782 72.502L165.216 67.984H166.926L167.79 70.918H167.862C168.078 70.282 168.384 69.724 168.78 69.244C169.188 68.752 169.686 68.374 170.274 68.11C170.862 67.834 171.528 67.696 172.272 67.696C173.04 67.696 173.736 67.816 174.36 68.056C174.996 68.296 175.542 68.656 175.998 69.136C176.454 69.604 176.808 70.192 177.06 70.9C177.312 71.608 177.438 72.436 177.438 73.384C177.438 74.68 177.198 75.76 176.718 76.624C176.238 77.488 175.59 78.136 174.774 78.568C173.958 79 173.034 79.216 172.002 79.216ZM179.677 79V67.984H181.369V79H179.677ZM190.388 79.216C190.016 79.216 189.686 79.192 189.398 79.144C189.122 79.108 188.87 79.06 188.642 79V77.506C188.978 77.59 189.26 77.65 189.488 77.686C189.716 77.722 190.016 77.74 190.388 77.74C191.06 77.74 191.678 77.59 192.242 77.29C192.806 76.978 193.262 76.504 193.61 75.868C193.958 75.22 194.132 74.392 194.132 73.384C194.132 72.436 193.988 71.656 193.7 71.044C193.424 70.432 193.022 69.976 192.494 69.676C191.978 69.364 191.366 69.208 190.658 69.208C189.962 69.208 189.362 69.352 188.858 69.64C188.354 69.916 187.934 70.348 187.598 70.936C187.262 71.524 186.986 72.274 186.77 73.186L185.42 79H183.656L185.168 72.502L183.602 67.984H185.312L186.176 70.918H186.248C186.464 70.282 186.77 69.724 187.166 69.244C187.574 68.752 188.072 68.374 188.66 68.11C189.248 67.834 189.914 67.696 190.658 67.696C191.426 67.696 192.122 67.816 192.746 68.056C193.382 68.296 193.928 68.656 194.384 69.136C194.84 69.604 195.194 70.192 195.446 70.9C195.698 71.608 195.824 72.436 195.824 73.384C195.824 74.68 195.584 75.76 195.104 76.624C194.624 77.488 193.976 78.136 193.16 78.568C192.344 79 191.42 79.216 190.388 79.216Z" fill="black"/>
</g>
</g>
</g>
</g>
<defs>
<clipPath id="clip0_1626_43139">
<rect width="234.388" height="159" fill="white"/>
</clipPath>
</defs>
</svg>
